<svg width="49" height="49" viewBox="0 0 49 49" fill="none" xmlns="http://www.w3.org/2000/svg">
<path d="M47 24.5C47 12.0736 36.9264 2 24.5 2C12.0736 2 2 12.0736 2 24.5C2 36.9264 12.0736 47 24.5 47V49C10.969 49 0 38.031 0 24.5C0 10.969 10.969 0 24.5 0C38.031 0 49 10.969 49 24.5C49 38.031 38.031 49 24.5 49V47C36.9264 47 47 36.9264 47 24.5Z" fill="#092079"/>
<path d="M33 35.5781V37.5781H16V35.5781H33ZM36 32.5781V16C36 14.3431 34.6569 13 33 13H16C14.3431 13 13 14.3431 13 16V32.5781C13 34.235 14.3431 35.5781 16 35.5781V37.5781C13.2386 37.5781 11 35.3395 11 32.5781V16C11 13.3247 13.1011 11.1405 15.7432 11.0068L16 11H33L33.2568 11.0068C35.8989 11.1405 38 13.3247 38 16V32.5781L37.9932 32.835C37.8595 35.477 35.6753 37.5781 33 37.5781V35.5781C34.6569 35.5781 36 34.235 36 32.5781Z" fill="#092079"/>
<path d="M31.145 14.788C31.3416 14.8416 31.5418 14.8702 31.7384 14.9274C32.7357 15.2277 33.5758 16.0785 33.8689 17.0758C33.9225 17.2617 33.9475 17.4548 34.0012 17.6371C33.9261 18.6344 34.1013 19.7747 34.0012 20.7542C33.8367 22.3593 32.4319 23.5139 30.8697 23.6104C28.7749 23.7355 26.1046 23.8285 25.3504 21.3941C25.0966 20.5719 25.1252 18.8131 25.1788 17.9195C25.2717 16.3537 26.4299 14.9489 28.035 14.788H31.1521H31.145ZM28.2423 17.201C27.8491 17.3046 27.6239 17.562 27.581 17.9659C27.5202 18.5379 27.5202 19.8248 27.5774 20.4003C27.6239 20.8793 27.9456 21.1689 28.421 21.2082C29.0216 21.2582 30.1905 21.2618 30.7875 21.2082C31.2308 21.1653 31.5561 20.9008 31.5954 20.4396C31.649 19.8391 31.6597 18.5164 31.5954 17.923C31.5525 17.5334 31.2558 17.2331 30.8626 17.1902C30.0475 17.1009 29.0752 17.2474 28.2423 17.201Z" fill="#092079"/>
<path d="M20.7461 14.7881C22.3512 14.9489 23.5094 16.3609 23.6023 17.9195C23.7381 20.2145 23.756 23.1243 20.8677 23.5604C19.999 23.6927 17.7148 23.6927 16.9069 23.4103C15.7344 23.0027 14.8657 21.8767 14.7764 20.6291C14.7156 19.7998 14.6906 17.8659 14.9015 17.108C15.2303 15.9141 16.385 14.9096 17.629 14.7881C18.3654 14.7166 20.0097 14.7166 20.7461 14.7881ZM17.847 17.201C17.5074 17.2546 17.2286 17.5513 17.1857 17.8909C17.082 18.6809 17.2572 19.6675 17.1857 20.479C17.2679 20.9437 17.5646 21.1761 18.0293 21.2118C18.6335 21.2583 19.7988 21.269 20.3958 21.2118C20.8748 21.1653 21.1644 20.8436 21.2037 20.3682C21.2537 19.7676 21.2573 18.5987 21.2037 18.0017C21.1608 17.5585 20.9177 17.2725 20.4709 17.1938C19.6666 17.2761 18.6299 17.0794 17.8506 17.2046L17.847 17.201Z" fill="#092079"/>
<path d="M33.9972 26.2021V27.4032C33.7505 28.4041 32.8425 28.497 31.9524 28.4148C30.7656 28.3076 30.7299 27.2423 30.805 26.2914C30.855 25.6516 31.359 25.2333 31.9882 25.1833C32.8783 25.1118 33.7434 25.2011 33.9972 26.1985V26.2021Z" fill="#092079"/>
<path d="M17.8105 25.1976C18.622 25.1368 20.0805 25.1154 20.8669 25.2333C23.7553 25.673 23.7374 28.5721 23.6016 30.8742C23.5158 32.3148 22.5863 33.5624 21.16 33.9127C20.4272 34.0915 18.5648 34.0629 17.7605 34.0092C16.1912 33.902 14.8828 32.5936 14.7756 31.0244C14.7184 30.1736 14.6862 28.1503 14.9365 27.3889C15.3511 26.1234 16.495 25.2941 17.8105 25.194V25.1976ZM17.9213 27.5998C17.5174 27.6498 17.2707 27.8929 17.1814 28.2861C17.2421 29.1083 17.092 30.0663 17.1814 30.8742C17.2278 31.2889 17.5388 31.5713 17.9499 31.607C18.5398 31.6606 19.8874 31.6714 20.4665 31.607C20.9241 31.557 21.1672 31.1995 21.1993 30.7634C21.2458 30.1593 21.2565 28.9939 21.1993 28.3969C21.1529 27.943 20.849 27.6355 20.3915 27.5891C19.8267 27.5319 18.4826 27.5283 17.9249 27.5998H17.9213Z" fill="#092079"/>
<path d="M26.2938 25.1976C27.9096 25.0046 28.5316 25.5765 28.4064 27.1959C28.3528 27.8965 27.8881 28.3612 27.1875 28.4148C25.6253 28.54 25.0677 28.0073 25.1749 26.4416C25.2214 25.7731 25.611 25.2762 26.2938 25.1976Z" fill="#092079"/>
<path d="M26.1396 30.8277C26.4006 30.7884 27.2084 30.7884 27.4658 30.8349C27.977 30.9278 28.3452 31.4319 28.3988 31.9287C28.4882 32.7795 28.3774 33.8841 27.33 34.0021C25.6677 34.1951 25.0243 33.6446 25.1744 31.9609C25.2209 31.439 25.5998 30.9099 26.1396 30.8242V30.8277Z" fill="#092079"/>
<path d="M29.3332 28.4255C30.2697 28.2683 31.0419 29.094 30.7237 30.0056C30.2447 31.3711 28.1571 30.8814 28.4145 29.3478C28.4824 28.951 28.9364 28.4935 29.3332 28.4291V28.4255Z" fill="#092079"/>
</svg>
