<?xml version="1.0" encoding="UTF-8"?>
<svg id="Layer_2" data-name="Layer 2" xmlns="http://www.w3.org/2000/svg" viewBox="0 0 313.15 287.7">
  <defs>
    <style>
      .cls-1 {
        fill: #fff;
      }
    </style>
  </defs>
  <g id="Layer_1-2" data-name="Layer 1">
    <g>
      <path class="cls-1" d="M32.05.23l246.84-.23c16.53,1.29,29.66,12.92,33.09,29.03,1.55,76.05,1.57,152.63,0,228.67-2.68,14.46-14.26,26.19-28.82,28.82-84.55,1.56-169.58,1.56-254.12,0-16.23-3.56-27.72-16.35-29.04-33.09L.04,32.6C2.04,15.6,15.04,2.26,32.05.23ZM33.51,24.15c-3.98,1.14-7.94,4.05-9.02,8.2l-.55,219.6c.93,8.03,6.3,10.99,13.86,11.59h235.85c9.5-.65,14.48-3.88,15.34-13.85V38.54c-.07-8.19-3.86-13.83-12.35-14.59l-243.13.2Z"/>
      <path class="cls-1" d="M250.6,137.17c6.68-.98,12.71,4.13,13.67,10.67-3.48,27.16,10.79,69.9-17.48,86.6-18.13,10.71-53.26,2.48-74.25,5.13-14.58-2.5-14.1-22.61.74-24,17.72-1.67,38.6,1.91,56.17.03,6.39-.68,10.33-5.33,10.88-11.57,1.63-18.35-1.42-38.91.14-57.49,1.1-4.73,5.33-8.67,10.12-9.37Z"/>
      <path class="cls-1" d="M80.7,47.39c18.69-2.1,40.49.99,59.5-.03,13.2,2.84,13.88,19.89.88,23.73-18.21,1.43-38.93-1.76-56.83.06-7.42.75-11.6,4.93-12.35,12.35-1.84,18.14,1.5,39.02-.18,57.46-4.6,12.72-21.39,11.26-23.72-2.14,2.41-30.95-12.66-86.32,32.7-91.42Z"/>
    </g>
  </g>
</svg>