<svg xmlns="http://www.w3.org/2000/svg" width="47" height="47" viewBox="0 0 47 47" fill="none">
<g clip-path="url(#clip0_421_1589)">
<path d="M32.9859 2.10886e-06C34.5301 0.306928 35.9789 1.22159 36.6996 2.65106C36.8134 2.8785 37.2 3.8861 37.2 4.07319V11.7158H42.7417C42.9204 11.7158 43.728 11.9799 43.9494 12.0655C45.5793 12.6977 46.6622 14.2458 47.0011 15.9259V30.9371C46.8163 32.7677 44.6249 35.1473 42.7417 35.1473H37.2V42.7899C37.2 42.977 36.8146 43.9858 36.6996 44.212C35.9238 45.7515 34.2866 46.7469 32.5784 46.8667C26.655 47.2812 20.2408 46.5573 14.2672 46.852C12.4819 46.852 9.90499 44.5642 9.90499 42.7899V35.1473H4.36328C2.17914 35.1473 0.243388 32.5708 0.100226 30.5287C-0.222807 25.9334 0.353513 20.9676 0.100226 16.3331C0.00967891 14.335 2.39204 11.7145 4.36328 11.7145H9.90499V4.07197C9.90499 2.24142 12.3938 0.205435 14.1179 -0.0012207H32.9859V2.10886e-06ZM35.2765 11.7158V4.43881C35.2765 3.28447 33.6234 1.90637 32.472 1.93327C26.7382 2.21574 20.5785 1.51873 14.8936 1.91737C13.615 2.00664 11.8297 2.99834 11.8297 4.43881V11.7158H35.2777H35.2765ZM4.73036 33.2262C6.28434 33.4097 8.17604 33.0893 9.76795 33.2262L9.90499 33.0893V26.041C9.90499 25.7353 10.7248 25.2816 11.0466 25.3513H35.9666C36.308 25.2535 37.1988 25.7096 37.1988 26.041V33.0893L37.3358 33.2262H42.3734C43.6766 33.2262 45.0788 31.628 45.0739 30.3416C44.7839 25.8845 45.4679 20.9211 45.0739 16.5226C44.9259 14.8657 43.7439 13.764 42.1018 13.6344H5.09255C3.35258 13.72 2.162 14.8743 2.02496 16.6095C1.67623 21.0434 2.28314 25.9407 2.03964 30.4223C2.1669 31.8359 3.30363 33.0563 4.73036 33.225V33.2262ZM35.2765 27.3678H11.8285V42.4242C11.8285 43.8647 13.6138 44.8564 14.8924 44.9457C20.5785 45.3443 26.7369 44.6485 32.4708 44.9298C33.6222 44.9567 35.2753 43.5786 35.2753 42.4242V27.3678H35.2765Z" fill="#092079"/>
<path d="M19.0811 33.4489C19.1399 33.4647 19.1998 33.4733 19.2586 33.4904C19.5571 33.5797 19.8092 33.834 19.8961 34.1336C19.912 34.1887 19.9193 34.2461 19.9352 34.3024C19.9132 34.6007 19.9646 34.9407 19.9352 35.2342C19.8863 35.7135 19.4653 36.0596 18.9979 36.0877C18.3714 36.1256 17.5724 36.1525 17.3473 35.4249C17.2714 35.1791 17.28 34.6533 17.2959 34.3867C17.324 33.9184 17.6703 33.499 18.15 33.4501H19.0824L19.0811 33.4489ZM18.2136 34.1691C18.0961 34.1997 18.0288 34.2767 18.0154 34.3978C17.997 34.5689 17.997 34.9541 18.0142 35.1253C18.0288 35.2684 18.1243 35.3552 18.2662 35.3674C18.4449 35.3833 18.796 35.3833 18.9735 35.3674C19.1056 35.3552 19.2035 35.2745 19.2157 35.1376C19.2316 34.9578 19.2341 34.5628 19.2157 34.3855C19.2035 34.2681 19.1142 34.1789 18.9967 34.1666C18.7532 34.141 18.462 34.1838 18.2136 34.1691Z" fill="#092079"/>
<path d="M15.9711 33.4488C16.4507 33.4977 16.797 33.9196 16.8252 34.3855C16.8655 35.0715 16.8717 35.9421 16.0078 36.0717C15.7472 36.1109 15.0644 36.1121 14.8233 36.0265C14.4722 35.903 14.2128 35.5667 14.1858 35.1938C14.1675 34.9455 14.1601 34.3671 14.2225 34.1422C14.3217 33.7851 14.6667 33.4855 15.0387 33.4488C15.2589 33.4268 15.7508 33.4268 15.9711 33.4488ZM15.1035 34.1691C15.002 34.185 14.9188 34.2742 14.9053 34.3745C14.8747 34.6105 14.9261 34.9052 14.9053 35.1473C14.9298 35.2867 15.0191 35.3552 15.1574 35.3662C15.3385 35.3809 15.6872 35.3833 15.8646 35.3662C16.0078 35.3515 16.0947 35.2561 16.1069 35.1143C16.1228 34.9358 16.1228 34.5848 16.1069 34.4075C16.0947 34.2754 16.0212 34.1886 15.8879 34.1666C15.6468 34.1911 15.3372 34.1324 15.1048 34.1691H15.1035Z" fill="#092079"/>
<path d="M19.9335 36.8593V37.2188C19.8589 37.5171 19.5872 37.5453 19.3217 37.522C18.9669 37.4902 18.9559 37.1711 18.9791 36.8874C18.9938 36.6954 19.1455 36.5707 19.3327 36.556C19.5995 36.5352 19.8577 36.5621 19.9335 36.8593Z" fill="#092079"/>
<path d="M15.0922 36.5596C15.3357 36.5413 15.7713 36.5352 16.0062 36.5706C16.8701 36.7027 16.8652 37.5685 16.8236 38.2569C16.7979 38.6873 16.5201 39.0603 16.0931 39.1655C15.874 39.2193 15.3161 39.2107 15.0763 39.1936C14.6064 39.1618 14.2161 38.7705 14.183 38.3009C14.1659 38.0466 14.1561 37.4425 14.2307 37.2151C14.3555 36.8372 14.6969 36.589 15.0909 36.5596H15.0922ZM15.1264 37.2774C15.0053 37.2921 14.9319 37.3655 14.9049 37.4829C14.9221 37.7286 14.878 38.0148 14.9049 38.2557C14.9184 38.3804 15.0114 38.4636 15.135 38.4746C15.3112 38.4905 15.715 38.4941 15.8875 38.4746C16.0245 38.4587 16.0967 38.3523 16.1065 38.2227C16.1212 38.0417 16.1237 37.6932 16.1065 37.5159C16.0931 37.3801 16.0013 37.2884 15.8655 37.275C15.6966 37.2579 15.2941 37.2566 15.1276 37.2786L15.1264 37.2774Z" fill="#092079"/>
<path d="M17.6303 36.5597C18.1136 36.5022 18.2996 36.6722 18.2617 37.1576C18.2458 37.3667 18.1063 37.5061 17.8971 37.522C17.4296 37.5587 17.262 37.401 17.295 36.9314C17.3085 36.7321 17.4247 36.5841 17.6303 36.5597Z" fill="#092079"/>
<path d="M17.5849 38.2422C17.662 38.23 17.9043 38.2312 17.9814 38.2447C18.1343 38.2728 18.2444 38.4232 18.2603 38.5724C18.2873 38.8267 18.2542 39.1569 17.941 39.1923C17.4442 39.2498 17.2521 39.0847 17.2961 38.5822C17.3096 38.4269 17.4234 38.2679 17.5849 38.2422Z" fill="#092079"/>
<path d="M18.5387 37.5245C18.8189 37.478 19.0502 37.7238 18.9547 37.9965C18.8116 38.4049 18.1863 38.2582 18.2634 37.7996C18.283 37.681 18.4188 37.5453 18.5387 37.5245Z" fill="#092079"/>
<path d="M31.0359 31.0496C31.1411 31.079 31.2488 31.0936 31.3553 31.1254C31.8936 31.2868 32.3464 31.7442 32.503 32.2834C32.5324 32.3837 32.5446 32.4864 32.574 32.5867C32.5336 33.1235 32.6278 33.7374 32.574 34.2644C32.4859 35.1277 31.7272 35.7513 30.8866 35.8015C29.7584 35.8687 28.3195 35.9189 27.912 34.608C27.775 34.1653 27.7921 33.2189 27.8202 32.7371C27.8704 31.8934 28.4945 31.1377 29.3583 31.0508H31.0371L31.0359 31.0496ZM29.4733 32.3482C29.2617 32.4045 29.1405 32.5427 29.1173 32.7603C29.0842 33.0685 29.0842 33.7618 29.1148 34.0712C29.1405 34.3292 29.313 34.4845 29.5688 34.5065C29.8918 34.5346 30.522 34.5359 30.8438 34.5065C31.0824 34.4845 31.2574 34.3402 31.2794 34.0932C31.3088 33.7692 31.3136 33.0575 31.2794 32.7383C31.2561 32.528 31.0958 32.3666 30.8854 32.3446C30.4473 32.2969 29.9212 32.3764 29.4746 32.3495L29.4733 32.3482Z" fill="#092079"/>
<path d="M25.4344 31.0496C26.2983 31.1365 26.9223 31.8971 26.9725 32.7359C27.0459 33.9722 27.0557 35.5386 25.5005 35.7734C25.0318 35.8443 23.8009 35.8455 23.3677 35.6927C22.7364 35.4713 22.2677 34.8648 22.2188 34.1923C22.187 33.7459 22.1735 32.7041 22.2861 32.2969C22.4647 31.6537 23.0851 31.1132 23.7568 31.0484C24.1533 31.0093 25.0392 31.0081 25.4356 31.0484L25.4344 31.0496ZM23.8719 32.3483C23.6895 32.3776 23.539 32.5366 23.5146 32.7188C23.4583 33.1431 23.5525 33.675 23.5133 34.1116C23.5586 34.3622 23.7177 34.487 23.9673 34.5065C24.2928 34.5322 24.9205 34.5371 25.2423 34.5065C25.5005 34.4809 25.6559 34.3084 25.6779 34.0529C25.706 33.7301 25.7073 33.1003 25.6779 32.7787C25.6559 32.5403 25.5237 32.385 25.2839 32.3434C24.8495 32.3874 24.2916 32.2822 23.8731 32.3483H23.8719Z" fill="#092079"/>
<path d="M32.573 37.1931V37.8399C32.4396 38.378 31.9501 38.4281 31.4705 38.3853C30.8318 38.3278 30.8122 37.7544 30.8526 37.2432C30.8795 36.8972 31.1511 36.6734 31.4901 36.6477C31.9697 36.6098 32.4359 36.6587 32.573 37.1943V37.1931Z" fill="#092079"/>
<path d="M23.852 36.6538C24.2901 36.6208 25.0744 36.6085 25.499 36.6734C27.0554 36.9106 27.0457 38.4709 26.9722 39.7108C26.9257 40.4873 26.4241 41.1586 25.6569 41.3469C25.2616 41.4435 24.2583 41.4276 23.8251 41.3983C22.9796 41.3408 22.2748 40.6365 22.2173 39.7915C22.1855 39.333 22.1696 38.2447 22.3042 37.835C22.5281 37.1551 23.1448 36.7076 23.852 36.6538ZM23.912 37.9475C23.6942 37.9744 23.562 38.1053 23.5131 38.318C23.5449 38.7607 23.4642 39.2767 23.5107 39.7108C23.5351 39.9346 23.7028 40.085 23.9242 40.1058C24.2412 40.1351 24.968 40.14 25.28 40.1058C25.5272 40.0777 25.6569 39.8857 25.6752 39.6521C25.7009 39.3269 25.7058 38.6995 25.6752 38.378C25.6507 38.1334 25.4856 37.9683 25.2408 37.9438C24.9362 37.9133 24.213 37.9121 23.912 37.95V37.9475Z" fill="#092079"/>
<path d="M28.4219 36.6538C29.2931 36.5499 29.6283 36.8568 29.5598 37.7299C29.5304 38.1077 29.2796 38.3572 28.9027 38.3865C28.0609 38.4526 27.7599 38.1677 27.8186 37.3239C27.8443 36.9644 28.0536 36.6978 28.4219 36.6538Z" fill="#092079"/>
<path d="M28.3403 39.6839C28.4798 39.6619 28.9166 39.6631 29.0549 39.6888C29.3302 39.7389 29.5296 40.0104 29.5566 40.2782C29.6043 40.7368 29.5455 41.3298 28.9802 41.3958C28.0846 41.4986 27.7383 41.2026 27.8203 40.2965C27.846 40.0165 28.0491 39.7304 28.3403 39.6851V39.6839Z" fill="#092079"/>
<path d="M30.0592 38.3914C30.5634 38.307 30.9806 38.7509 30.8081 39.2413C30.5499 39.9774 29.4242 39.712 29.5637 38.8867C29.5992 38.6727 29.8439 38.4281 30.0592 38.3914Z" fill="#092079"/>
<path d="M38.0833 17.2392H34.1445C33.5356 17.2392 33.042 17.7325 33.042 18.341C33.042 18.9494 33.5356 19.4427 34.1445 19.4427H38.0833C38.6921 19.4427 39.1857 18.9494 39.1857 18.341C39.1857 17.7325 38.6921 17.2392 38.0833 17.2392Z" fill="#092079"/>
</g>
<defs fill="#000000">
<clipPath id="clip0_421_1589" fill="#000000">
<rect width="47" height="47" fill="#092079"/>
</clipPath>
</defs>
</svg>