<svg xmlns="http://www.w3.org/2000/svg" width="41" height="40" viewBox="0 0 41 40" fill="none">
<rect x="1" y="1" width="38.6349" height="38" rx="4" stroke="#092079" stroke-width="2" fill="#dcf6f9"/>
<path d="M30.3187 5.70099C30.6146 5.78169 30.9159 5.82473 31.2118 5.91081C32.7128 6.36272 33.9771 7.64314 34.4182 9.14414C34.4989 9.4239 34.5366 9.71441 34.6173 9.98879C34.5043 11.4898 34.7679 13.206 34.6173 14.6801C34.3698 17.0957 32.2555 18.8334 29.9045 18.9786C26.7518 19.1669 22.733 19.3068 21.5979 15.6431C21.2159 14.4057 21.2589 11.7588 21.3396 10.4138C21.4795 8.0574 23.2226 5.94309 25.6382 5.70099H30.3295H30.3187ZM25.9502 9.33244C25.3585 9.48846 25.0195 9.87581 24.955 10.4837C24.8635 11.3445 24.8635 13.2813 24.9496 14.1475C25.0195 14.8684 25.5037 15.3042 26.2192 15.3633C27.1231 15.4387 28.8823 15.444 29.7807 15.3633C30.4479 15.2988 30.9374 14.9007 30.9966 14.2067C31.0773 13.3028 31.0934 11.3123 30.9966 10.4192C30.9321 9.83277 30.4855 9.38086 29.8937 9.3163C28.6671 9.1818 27.2038 9.40238 25.9502 9.33244Z" fill="#092079"/>
<path d="M14.6673 5.70094C17.0829 5.94303 18.826 8.06811 18.9658 10.4138C19.1703 13.8677 19.1972 18.2469 14.8502 18.9033C13.5429 19.1023 10.1051 19.1023 8.88925 18.6773C7.12463 18.064 5.81731 16.3693 5.68281 14.4917C5.59135 13.2436 5.55369 10.3331 5.87111 9.19251C6.36606 7.39561 8.10378 5.88386 9.97599 5.70094C11.0843 5.59334 13.559 5.59334 14.6673 5.70094ZM10.3042 9.33239C9.79307 9.41309 9.37344 9.85962 9.30888 10.3707C9.15286 11.5597 9.41648 13.0445 9.30888 14.2658C9.43262 14.9652 9.87915 15.3149 10.5785 15.3687C11.4878 15.4386 13.2416 15.4547 14.1401 15.3687C14.861 15.2987 15.2967 14.8145 15.3559 14.099C15.4312 13.1952 15.4366 11.4359 15.3559 10.5375C15.2914 9.87038 14.9255 9.43999 14.253 9.32163C13.0425 9.44537 11.4824 9.14947 10.3095 9.33777L10.3042 9.33239Z" fill="#092079"/>
<path d="M34.6105 22.879V24.6866C34.2392 26.193 32.8727 26.3329 31.5331 26.2092C29.747 26.0478 29.6932 24.4446 29.8062 23.0135C29.8815 22.0505 30.6401 21.421 31.5869 21.3457C32.9265 21.2381 34.2285 21.3726 34.6105 22.8736V22.879Z" fill="#092079"/>
<path d="M10.2512 21.3673C11.4724 21.2759 13.6674 21.2436 14.851 21.4211C19.198 22.0829 19.1711 26.446 18.9667 29.9107C18.8375 32.0788 17.4388 33.9564 15.2922 34.4836C14.1893 34.7526 11.3863 34.7096 10.1759 34.6289C7.81407 34.4675 5.84501 32.4984 5.68362 30.1366C5.59754 28.8562 5.54912 25.8112 5.92571 24.6652C6.54979 22.7608 8.27136 21.5126 10.2512 21.362V21.3673ZM10.418 24.9827C9.81002 25.058 9.43881 25.4238 9.30431 26.0156C9.39577 27.253 9.16981 28.6948 9.30431 29.9107C9.37425 30.5347 9.8423 30.9598 10.461 31.0136C11.3487 31.0943 13.3769 31.1104 14.2485 31.0136C14.9371 30.9382 15.3029 30.4002 15.3513 29.7439C15.4213 28.8347 15.4374 27.0808 15.3513 26.1824C15.2814 25.4991 14.8241 25.0365 14.1355 24.9665C13.2855 24.8804 11.2626 24.8751 10.4233 24.9827H10.418Z" fill="#092079"/>
<path d="M23.0167 21.3673C25.4484 21.0768 26.3845 21.9376 26.1962 24.3747C26.1155 25.4292 25.4161 26.1286 24.3616 26.2093C22.0106 26.3976 21.1713 25.5959 21.3327 23.2395C21.4027 22.2335 21.9891 21.4857 23.0167 21.3673Z" fill="#092079"/>
<path d="M22.7861 29.8406C23.1789 29.7814 24.3947 29.7814 24.7821 29.8514C25.5514 29.9912 26.1055 30.7498 26.1862 31.4976C26.3207 32.778 26.154 34.4404 24.5776 34.618C22.076 34.9085 21.1076 34.08 21.3335 31.546C21.4035 30.7606 21.9737 29.9643 22.7861 29.8352V29.8406Z" fill="#092079"/>
<path d="M27.5904 26.2254C28.9999 25.9886 30.162 27.2314 29.6832 28.6033C28.9623 30.6584 25.8204 29.9214 26.2077 27.6134C26.31 27.0162 26.9932 26.3276 27.5904 26.2307V26.2254Z" fill="#092079"/>
</svg>