<svg xmlns="http://www.w3.org/2000/svg" width="65" height="65" viewBox="0 0 65 65" fill="none">
<path d="M56.0756 26.9265L42.751 19.001C43.6317 16.7184 43.654 14.5397 42.7895 12.6611C40.2615 7.16795 31.2403 6.10863 22.2571 10.2427C13.2739 14.3767 8.21048 21.9178 10.7384 27.411C11.6029 29.2895 13.2723 30.6898 15.5788 31.5055L12.9314 46.7814C12.7282 47.9106 12.9857 49.0328 13.6487 49.9576C14.3116 50.8824 15.3007 51.4845 16.4396 51.6617L28.1043 53.4248L29.104 55.5972C30.243 58.0722 33.1632 59.1666 35.6205 58.0357L49.8654 51.4803C52.3226 50.3494 53.391 47.4196 52.252 44.9445L51.2522 42.7722L57.5005 32.7655C58.1067 31.7853 58.2927 30.6424 58.0215 29.5373C57.7503 28.4322 57.0655 27.5067 56.0756 26.9265ZM12.5191 26.5915C10.5196 22.2468 15.3575 15.5755 23.0765 12.0233C30.7955 8.47104 39.0094 9.13588 41.0089 13.4806C41.7177 15.0208 41.4893 16.6579 41.0388 17.9764L39.735 17.2063C38.1603 16.2695 36.1552 16.4371 34.7315 17.6101L29.7835 21.7212C29.5492 21.9154 29.3587 22.1109 29.1949 22.2942C28.3726 22.5 27.5891 22.8605 26.8979 23.3512C26.6432 23.3605 26.3797 23.3739 26.0668 23.4208L19.7388 24.5097C17.9176 24.8192 16.4902 26.242 16.1775 28.0474L15.9144 29.5387C14.6198 29.0232 13.232 28.1407 12.5191 26.5915ZM19.5412 34.8174L27.125 51.297L16.7347 49.7242C16.1194 49.6297 15.5906 49.3013 15.238 48.8162C14.8853 48.3312 14.7559 47.7219 14.8586 47.1244L18.1047 28.3904C18.2817 27.3919 19.0697 26.6193 20.0706 26.45L24.2777 25.7222L20.6276 29.1605C19.0851 30.6148 18.6521 32.8855 19.5412 34.8174ZM50.4713 45.764C51.1597 47.2597 50.515 49.0236 49.046 49.6996L34.8011 56.2551C33.3321 56.9312 31.5729 56.2735 30.8846 54.7778L21.3218 33.998C20.7851 32.8317 21.0487 31.4589 21.9669 30.594L27.5124 25.3664C27.8968 25.0061 28.3407 24.7047 28.8125 24.4876C29.2844 24.2704 29.802 24.1293 30.3258 24.0717L37.4502 23.3068C36.1503 24.5847 34.5733 25.7528 32.852 26.7714C32 25.9984 30.736 25.7601 29.632 26.2682C28.163 26.9442 27.5142 28.6993 28.1902 30.1683C28.8662 31.6373 30.6213 32.2861 32.0903 31.61C33.3011 31.0528 33.9391 29.7667 33.7605 28.5111C36.0982 27.144 38.1467 25.5 39.762 23.6886C40.2477 23.9937 40.6545 24.4322 40.9085 24.9842L50.4713 45.764ZM31.7514 28.5294C31.9768 29.0191 31.7605 29.6041 31.2708 29.8294C30.7812 30.0548 30.1962 29.8385 29.9708 29.3488C29.7455 28.8592 29.9617 28.2742 30.4514 28.0488C30.9411 27.8235 31.5261 28.0397 31.7514 28.5294ZM39.1616 21.3756C38.6866 21.2813 38.1917 21.2609 37.6858 21.3103L32.7 21.8463L35.9893 19.1242C36.769 18.4741 37.8684 18.3781 38.742 18.8932L40.2305 19.7833C39.9239 20.3128 39.5687 20.8538 39.1616 21.3756ZM56.1208 30.002C56.2598 30.5854 56.1654 31.2006 55.8328 31.7205L50.273 40.6443L42.6891 24.1648C42.3122 23.3457 41.7202 22.6688 41.0081 22.1765C41.3475 21.7182 41.6478 21.2456 41.9084 20.7804L55.0826 28.6134C55.6032 28.924 55.9818 29.4186 56.1208 30.002Z" fill="#092079"/>
<path d="M38.943 36.3194C38.9424 36.3197 38.9427 36.3206 38.9434 36.3205C39.0687 36.2974 39.1895 36.2598 39.3159 36.2391C39.9674 36.1387 40.6792 36.3956 41.1185 36.8852C41.2788 37.0657 41.3891 37.2864 41.4932 37.5041C41.7237 37.9864 42.0266 38.4738 42.1971 38.9501C42.5408 39.9116 42.0532 40.9541 41.1874 41.4352C40.0251 42.0778 38.5253 42.859 37.4307 41.6743C37.0616 41.274 36.5983 40.2617 36.3853 39.7366C36.0114 38.817 36.2899 37.6989 37.1627 37.1693L38.943 36.3194ZM38.5557 38.1887C38.154 38.4029 37.6183 38.679 37.7699 39.1082C37.8912 39.4514 38.2421 40.1864 38.4317 40.4995C38.5888 40.7604 38.8515 40.8381 39.1338 40.7309C39.4905 40.5957 40.1591 40.279 40.4854 40.0856C40.7269 39.9403 40.8405 39.7005 40.7372 39.4264C40.6041 39.0688 40.2496 38.3104 40.051 37.989C39.9203 37.7782 39.669 37.6876 39.4327 37.7703C39.1456 37.8707 38.8497 38.032 38.5557 38.1887Z" fill="#092079"/>
<path d="M33.0005 39.1568C33.9611 38.811 35.0076 39.3016 35.4856 40.1664C36.189 41.4401 36.9926 43.0972 35.4619 44.1338C35.0018 44.4462 33.6972 45.0691 33.1588 45.1281C32.378 45.215 31.5748 44.8088 31.1836 44.1206C30.9228 43.6635 30.3811 42.5658 30.295 42.0755C30.1572 41.3039 30.5428 40.4153 31.2202 40.0067C31.6212 39.7651 32.5604 39.3167 33.0005 39.1568ZM32.0041 41.3259C32.0032 41.3256 32.0021 41.3257 32.0013 41.3263C31.8229 41.4498 31.7451 41.6946 31.813 41.8997C31.896 42.1543 32.0389 42.4191 32.1818 42.6837C32.4252 43.1348 32.7222 43.7511 33.2004 43.5664C33.5581 43.4282 34.2266 43.1166 34.552 42.9211C34.8129 42.764 34.8905 42.5013 34.7834 42.219C34.6482 41.8624 34.3315 41.1938 34.1381 40.8674C34.0611 40.7395 33.964 40.6521 33.8485 40.6096C33.6274 40.5283 33.3986 40.6714 33.1847 40.7702C32.7897 40.9525 32.3273 41.1047 32.007 41.3255C32.0061 41.3261 32.0051 41.3262 32.0041 41.3259Z" fill="#092079"/>
<path d="M43.6812 42.0625C43.8988 42.5181 44.1714 43.0817 43.8343 43.4576C43.6613 43.6505 43.3941 43.7815 43.1167 43.8838C42.4097 44.1461 42.0988 43.5475 41.8824 42.9839C41.7365 42.6048 41.9103 42.2285 42.256 42.0284C42.7443 41.7452 43.2621 41.5604 43.6788 42.0586C43.6797 42.0598 43.6806 42.0611 43.6812 42.0625Z" fill="#092079"/>
<path d="M34.1629 45.9012C34.1631 45.9018 34.1638 45.902 34.1643 45.9017C34.6114 45.6457 35.4377 45.2363 35.9187 45.0893C37.6883 44.5528 38.4686 46.2135 39.0187 47.5654C39.3625 48.4116 39.1719 49.3775 38.4528 49.9665C38.0829 50.2684 37.0114 50.7599 36.5374 50.9486C35.6119 51.3153 34.5079 50.9248 34.0188 50.0577C33.7541 49.5874 33.1841 48.4406 33.1194 47.9375C33.0112 47.102 33.4379 46.3168 34.1614 45.9008C34.1619 45.9005 34.1626 45.9007 34.1629 45.9012ZM34.8816 47.244C34.498 47.4892 34.7621 48.039 34.941 48.4577C35.069 48.7573 35.1943 49.0621 35.3519 49.316C35.4915 49.5401 35.7461 49.6166 35.9906 49.525C36.3421 49.3947 37.1148 49.0334 37.428 48.8387C37.6757 48.6854 37.717 48.415 37.6165 48.1571C37.4783 47.7994 37.1667 47.1309 36.9712 46.8055C36.8209 46.5589 36.5635 46.4662 36.2895 46.5644C35.9513 46.6857 35.1827 47.0502 34.8837 47.2431L34.8816 47.244Z" fill="#092079"/>
<path d="M39.0077 43.5894C39.8779 43.0385 40.3891 43.1956 40.7592 44.1546C40.9196 44.5694 40.7809 44.9615 40.3954 45.1832C39.5373 45.6806 39.0736 45.5284 38.7079 44.6049C38.5522 44.2105 38.6392 43.8204 39.0077 43.5894Z" fill="#092079"/>
<path d="M40.4554 46.8458C40.4557 46.8464 40.4563 46.8466 40.4568 46.8463C40.5962 46.7523 41.056 46.5329 41.2153 46.4893C41.5326 46.403 41.8803 46.5905 42.0464 46.8597C42.3295 47.3212 42.5674 47.9823 42.0013 48.3353C41.1046 48.8988 40.587 48.7598 40.2136 47.7572C40.098 47.4468 40.1699 47.0419 40.454 46.8455C40.4545 46.8451 40.4551 46.8453 40.4554 46.8458Z" fill="#092079"/>
<path d="M41.624 44.6054C41.6237 44.6048 41.6239 44.6041 41.6245 44.6037C42.1164 44.2595 42.7818 44.5206 42.8486 45.1276C42.9473 46.0382 41.6215 46.3277 41.3503 45.3816C41.281 45.1368 41.415 44.7525 41.6236 44.6071C41.6241 44.6067 41.6243 44.606 41.624 44.6054Z" fill="#092079"/>
</svg>