<svg width="57" height="41" viewBox="0 0 57 41" fill="none" xmlns="http://www.w3.org/2000/svg">
<path d="M57 0V41H0V0H57ZM2 39H55V2H2V39Z" fill="white"/>
<path d="M37 31.5781V33.5781H20V31.5781H37ZM40 28.5781V12C40 10.3431 38.6569 9 37 9H20C18.3431 9 17 10.3431 17 12V28.5781C17 30.235 18.3431 31.5781 20 31.5781V33.5781C17.2386 33.5781 15 31.3395 15 28.5781V12C15 9.32472 17.1011 7.14053 19.7432 7.00684L20 7H37L37.2568 7.00684C39.8989 7.14053 42 9.32472 42 12V28.5781L41.9932 28.835C41.8595 31.477 39.6753 33.5781 37 33.5781V31.5781C38.6569 31.5781 40 30.235 40 28.5781Z" fill="white"/>
<path d="M35.145 10.788C35.3416 10.8416 35.5418 10.8702 35.7384 10.9274C36.7357 11.2277 37.5758 12.0785 37.8689 13.0758C37.9225 13.2617 37.9475 13.4548 38.0012 13.6371C37.9261 14.6344 38.1013 15.7747 38.0012 16.7542C37.8367 18.3593 36.4319 19.5139 34.8697 19.6104C32.7749 19.7355 30.1046 19.8285 29.3504 17.3941C29.0966 16.5719 29.1252 14.8131 29.1788 13.9195C29.2717 12.3537 30.4299 10.9489 32.035 10.788H35.1521H35.145ZM32.2423 13.201C31.8491 13.3046 31.6239 13.562 31.581 13.9659C31.5202 14.5379 31.5202 15.8248 31.5774 16.4003C31.6239 16.8793 31.9456 17.1689 32.421 17.2082C33.0216 17.2582 34.1905 17.2618 34.7875 17.2082C35.2308 17.1653 35.5561 16.9008 35.5954 16.4396C35.649 15.8391 35.6597 14.5164 35.5954 13.923C35.5525 13.5334 35.2558 13.2331 34.8626 13.1902C34.0475 13.1009 33.0752 13.2474 32.2423 13.201Z" fill="white"/>
<path d="M24.7461 10.7881C26.3512 10.9489 27.5094 12.3609 27.6023 13.9195C27.7381 16.2145 27.756 19.1243 24.8677 19.5604C23.999 19.6927 21.7148 19.6927 20.9069 19.4103C19.7344 19.0027 18.8657 17.8767 18.7764 16.6291C18.7156 15.7998 18.6906 13.8659 18.9015 13.108C19.2303 11.9141 20.385 10.9096 21.629 10.7881C22.3654 10.7166 24.0097 10.7166 24.7461 10.7881ZM21.847 13.201C21.5074 13.2546 21.2286 13.5513 21.1857 13.8909C21.082 14.6809 21.2572 15.6675 21.1857 16.479C21.2679 16.9437 21.5646 17.1761 22.0293 17.2118C22.6335 17.2583 23.7988 17.269 24.3958 17.2118C24.8748 17.1653 25.1644 16.8436 25.2037 16.3682C25.2537 15.7676 25.2573 14.5987 25.2037 14.0017C25.1608 13.5585 24.9177 13.2725 24.4709 13.1938C23.6666 13.2761 22.6299 13.0794 21.8506 13.2046L21.847 13.201Z" fill="white"/>
<path d="M37.9972 22.2021V23.4032C37.7505 24.4041 36.8425 24.497 35.9524 24.4148C34.7656 24.3076 34.7299 23.2423 34.805 22.2914C34.855 21.6516 35.359 21.2333 35.9882 21.1833C36.8783 21.1118 37.7434 21.2011 37.9972 22.1985V22.2021Z" fill="white"/>
<path d="M21.8105 21.1976C22.622 21.1368 24.0805 21.1154 24.8669 21.2333C27.7553 21.673 27.7374 24.5721 27.6016 26.8742C27.5158 28.3148 26.5863 29.5624 25.16 29.9127C24.4272 30.0915 22.5648 30.0629 21.7605 30.0092C20.1912 29.902 18.8828 28.5936 18.7756 27.0244C18.7184 26.1736 18.6862 24.1503 18.9365 23.3889C19.3511 22.1234 20.495 21.2941 21.8105 21.194V21.1976ZM21.9213 23.5998C21.5174 23.6498 21.2707 23.8929 21.1814 24.2861C21.2421 25.1083 21.092 26.0663 21.1814 26.8742C21.2278 27.2889 21.5388 27.5713 21.9499 27.607C22.5398 27.6606 23.8874 27.6714 24.4665 27.607C24.9241 27.557 25.1672 27.1995 25.1993 26.7634C25.2458 26.1593 25.2565 24.9939 25.1993 24.3969C25.1529 23.943 24.849 23.6355 24.3915 23.5891C23.8267 23.5319 22.4826 23.5283 21.9249 23.5998H21.9213Z" fill="white"/>
<path d="M30.2938 21.1976C31.9096 21.0046 32.5316 21.5765 32.4064 23.1959C32.3528 23.8965 31.8881 24.3612 31.1875 24.4148C29.6253 24.54 29.0677 24.0073 29.1749 22.4416C29.2214 21.7731 29.611 21.2762 30.2938 21.1976Z" fill="white"/>
<path d="M30.1396 26.8277C30.4006 26.7884 31.2084 26.7884 31.4658 26.8349C31.977 26.9278 32.3452 27.4319 32.3988 27.9287C32.4882 28.7795 32.3774 29.8841 31.33 30.0021C29.6677 30.1951 29.0243 29.6446 29.1744 27.9609C29.2209 27.439 29.5998 26.9099 30.1396 26.8242V26.8277Z" fill="white"/>
<path d="M33.3332 24.4255C34.2697 24.2683 35.0419 25.094 34.7237 26.0056C34.2447 27.3711 32.1571 26.8814 32.4145 25.3478C32.4824 24.951 32.9364 24.4935 33.3332 24.4291V24.4255Z" fill="white"/>
</svg>
