<svg width="57" height="41" viewBox="0 0 57 41" fill="none" xmlns="http://www.w3.org/2000/svg">
<rect x="1" y="1" width="55" height="39" stroke="white" stroke-width="2"/>
<rect x="15.5" y="7.5" width="26" height="25.5781" rx="4.5" stroke="white"/>
<path d="M35.0898 11.288C35.1787 11.31 35.2641 11.33 35.3379 11.3456C35.4357 11.3664 35.5171 11.3832 35.5938 11.4052V11.4062C36.4273 11.6572 37.142 12.3787 37.3887 13.2138V13.2148C37.4093 13.2864 37.425 13.3623 37.4453 13.4599C37.4591 13.5259 37.4785 13.6027 37.499 13.6835C37.4674 14.1925 37.4904 14.7271 37.5107 15.2226C37.5328 15.7598 37.5497 16.2547 37.5039 16.7031C37.368 18.0297 36.1936 19.0276 34.8389 19.1113C33.7806 19.1745 32.6675 19.2209 31.7324 18.9785C30.8891 18.7597 30.2294 18.3184 29.8916 17.4296L29.8281 17.246C29.7234 16.9063 29.6672 16.3223 29.6494 15.6699C29.6364 15.1922 29.6443 14.7082 29.6602 14.3124L29.6777 13.9492C29.7579 12.5988 30.749 11.4304 32.0654 11.288H35.0898ZM33.5371 12.6796C33.0763 12.6998 32.6557 12.7236 32.2705 12.7021L32.1914 12.6972L32.1152 12.7177C31.8415 12.7899 31.5914 12.9254 31.4023 13.1435C31.213 13.362 31.1142 13.6289 31.084 13.913C31.0275 14.4447 31.0199 15.5229 31.0596 16.1913L31.0801 16.4501C31.1137 16.7935 31.2509 17.1028 31.4951 17.3329C31.7376 17.5613 32.0507 17.6788 32.3799 17.706C33.0063 17.7582 34.2037 17.7624 34.832 17.706H34.8359C35.1421 17.6763 35.4428 17.5664 35.6797 17.3505C35.9213 17.1302 36.0639 16.8289 36.0938 16.4843C36.1495 15.8597 36.1615 14.5028 36.0928 13.8691V13.8681L36.0752 13.7538C35.9715 13.2264 35.5655 12.8157 35.0332 12.7109L34.917 12.6933C34.4663 12.6439 33.9832 12.6601 33.5371 12.6796Z" fill="white" stroke="white"/>
<path d="M21.6777 11.2862C22.3822 11.2179 23.9941 11.2178 24.6982 11.2862V11.2852C26.0227 11.419 27.023 12.5992 27.1035 13.9493C27.1719 15.1049 27.2002 16.3168 26.8926 17.2852C26.742 17.7591 26.517 18.1525 26.1943 18.4493C25.8746 18.7433 25.4297 18.9703 24.793 19.0665H24.792C24.3997 19.1261 23.6452 19.1591 22.877 19.1407C22.0908 19.1218 21.3924 19.0503 21.0723 18.9385L21.0713 18.9376L20.8896 18.8672C19.9973 18.4768 19.3459 17.5759 19.2754 16.5938V16.5928L19.2549 16.2471C19.2372 15.858 19.2281 15.3523 19.2373 14.8506C19.2499 14.164 19.2967 13.5517 19.3828 13.2422L19.3838 13.2413C19.6595 12.2403 20.6466 11.3869 21.6777 11.2862ZM23.1768 12.6837C22.8134 12.6652 22.4119 12.6476 22.0332 12.6797L22.0205 12.6671L21.7695 12.7071C21.2031 12.7965 20.7593 13.275 20.6895 13.8282C20.6312 14.2743 20.6523 14.762 20.6738 15.2012C20.6963 15.6608 20.7195 16.0709 20.6875 16.4346L20.6816 16.501L20.6934 16.5665C20.7506 16.8894 20.8923 17.1774 21.1406 17.3878C21.385 17.5946 21.6864 17.6866 21.9912 17.71C22.6151 17.758 23.8102 17.7697 24.4434 17.709H24.4443C24.7884 17.6756 25.0987 17.5387 25.3291 17.294C25.5574 17.0516 25.6749 16.7384 25.7021 16.4092C25.7543 15.7828 25.7586 14.5854 25.7021 13.9571L25.7012 13.9532C25.672 13.652 25.5704 13.3613 25.3623 13.128C25.1522 12.8925 24.8704 12.7563 24.5576 12.7012L24.4893 12.6895L24.4199 12.6964C24.0649 12.7326 23.6501 12.7077 23.1768 12.6837Z" fill="white" stroke="white"/>
<path d="M36.0283 21.6819C36.4603 21.6473 36.8033 21.6616 37.0518 21.7571C37.2477 21.8325 37.4067 21.9648 37.4971 22.2698V23.3323C37.4105 23.6328 37.2493 23.7691 37.041 23.847C36.7819 23.9439 36.4259 23.9568 35.998 23.9173H35.9971C35.7758 23.8973 35.6464 23.8361 35.5664 23.7747C35.4864 23.7133 35.4222 23.6253 35.374 23.4954C35.2685 23.2108 35.2661 22.8071 35.3037 22.3304C35.3312 21.9788 35.598 21.7163 36.0273 21.6819H36.0283Z" fill="white" stroke="white"/>
<path d="M21.8477 21.6962C22.6477 21.6363 24.0613 21.617 24.792 21.7264V21.7274C25.4289 21.8244 25.8736 22.0509 26.1934 22.3446C26.5161 22.6411 26.7411 23.0337 26.8916 23.5067C27.1223 24.2319 27.1641 25.0946 27.1416 25.9696L27.1025 26.8446C27.033 28.0122 26.3287 29.0027 25.2598 29.3632L25.042 29.4266C24.7383 29.5007 24.143 29.5392 23.4805 29.5477C22.8348 29.5561 22.1816 29.5365 21.7939 29.5106H21.7949C20.4749 29.4204 19.3646 28.3101 19.2744 26.9901C19.2468 26.5795 19.2245 25.8764 19.2402 25.1844C19.2545 24.5577 19.2999 24.0017 19.377 23.6718L19.4111 23.5448C19.7473 22.5189 20.6603 21.823 21.7451 21.703L21.8477 21.6962ZM24.4414 23.0917C23.8599 23.0328 22.5259 23.0276 21.9033 23.0995H21.8906L21.8604 23.1034C21.5696 23.1394 21.3028 23.2505 21.0908 23.4501C20.8807 23.648 20.7552 23.9035 20.6934 24.1757L20.6768 24.2479L20.6826 24.3231C20.7104 24.6987 20.6901 25.1104 20.6709 25.5643C20.657 25.8932 20.6441 26.2447 20.6592 26.5887L20.6846 26.9296C20.7592 27.5956 21.2729 28.0484 21.9043 28.1044V28.1053C22.5184 28.1612 23.9009 28.1733 24.5215 28.1044L24.5205 28.1034C24.8778 28.0643 25.1744 27.8994 25.3809 27.6454C25.5803 27.3998 25.6762 27.0977 25.6982 26.8016C25.7462 26.1778 25.7579 24.9828 25.6973 24.3495L25.6963 24.3456C25.6627 24.0182 25.5327 23.7169 25.3037 23.4872C25.0745 23.2572 24.7727 23.1253 24.4424 23.0917H24.4414Z" fill="white" stroke="white"/>
<path d="M30.3535 21.6938C31.1285 21.6013 31.4885 21.7203 31.6602 21.8813C31.8076 22.0199 31.9321 22.3007 31.9209 22.8872L31.9082 23.1577C31.8893 23.4045 31.8021 23.5792 31.6865 23.6948C31.5709 23.8104 31.3961 23.8976 31.1494 23.9165H31.1475C30.3938 23.9769 30.0607 23.8569 29.9043 23.7046C29.7693 23.5729 29.6541 23.3076 29.6621 22.7388L29.6738 22.4761C29.6911 22.2285 29.7695 22.047 29.874 21.9263C29.9744 21.8104 30.124 21.72 30.3506 21.6938H30.3535Z" fill="white" stroke="white"/>
<path d="M30.8027 27.2991C31.0728 27.3 31.2973 27.3121 31.377 27.3264C31.5884 27.3651 31.8042 27.5834 31.8789 27.8606L31.9014 27.9827C31.9429 28.3791 31.9299 28.7767 31.8223 29.0667C31.7709 29.2049 31.7039 29.3016 31.627 29.3674C31.5534 29.4302 31.446 29.4857 31.2744 29.5051H31.2725C30.466 29.5988 30.0899 29.4832 29.9121 29.3186C29.7421 29.1612 29.6008 28.8134 29.6729 28.0051C29.7033 27.6635 29.9407 27.3855 30.1855 27.3264L30.2139 27.3225C30.3024 27.3092 30.5357 27.2982 30.8027 27.2991Z" fill="white" stroke="white"/>
<path d="M33.4873 24.9101C34.0504 24.8588 34.4233 25.3466 34.252 25.8398C33.9846 26.6019 32.7487 26.3875 32.9072 25.4326C32.9181 25.3691 32.9779 25.2441 33.1045 25.1171C33.2315 24.9898 33.3535 24.9325 33.4131 24.9228L33.4873 24.9101Z" fill="white" stroke="white"/>
</svg>
